<?xml version="1.0" standalone="no"?>
<!DOCTYPE svg PUBLIC "-//W3C//DTD SVG 20010904//EN"
 "http://www.w3.org/TR/2001/REC-SVG-20010904/DTD/svg10.dtd">
<svg version="1.0" xmlns="http://www.w3.org/2000/svg"
 width="534.000000pt" height="221.000000pt" viewBox="0 0 534.000000 221.000000"
 preserveAspectRatio="xMidYMid meet">

<g transform="translate(0.000000,221.000000) scale(0.100000,-0.100000)"
fill="#000000" stroke="none">
<path d="M793 1723 c3 -16 -2 -40 -11 -58 -13 -23 -17 -56 -16 -135 0 -93 4
-115 33 -195 18 -49 39 -112 47 -140 17 -56 40 -413 35 -540 -2 -44 -4 -107
-5 -141 l-1 -61 -210 -83 c-115 -46 -231 -94 -257 -107 -46 -22 -63 -43 -35
-43 7 0 129 47 272 104 230 92 262 102 294 95 20 -5 50 -9 68 -9 26 0 32 -5
38 -28 3 -15 15 -43 26 -61 15 -26 25 -32 47 -29 22 2 32 14 56 64 l30 60 72
12 c40 6 99 22 132 35 l60 25 11 -24 c16 -37 56 -32 70 7 6 18 11 44 11 58 0
19 17 43 58 84 l58 57 21 -24 c11 -13 33 -44 48 -70 17 -29 34 -46 46 -46 23
0 24 2 37 103 16 130 63 154 128 66 42 -57 89 -83 131 -73 15 4 68 26 119 50
99 46 118 68 157 175 l17 46 168 42 c92 24 212 53 267 66 55 13 127 34 160 47
50 20 60 28 60 49 l0 24 -125 -3 c-116 -2 -372 -25 -443 -39 -45 -9 -30 18 23
42 25 11 112 54 195 96 82 41 179 86 215 99 73 26 96 42 85 60 -11 18 -51 7
-141 -38 -43 -22 -146 -74 -229 -115 -82 -42 -151 -74 -153 -73 -1 2 14 66 33
142 20 77 39 171 42 209 5 63 3 72 -16 90 -28 24 -92 32 -197 24 -135 -11
-196 -53 -263 -185 -96 -189 -101 -289 -21 -366 40 -37 93 -54 155 -49 21 2
27 -1 20 -8 -11 -11 -448 -200 -453 -196 -1 1 2 31 7 66 6 35 13 118 17 184 5
97 4 132 -10 177 -23 81 -88 163 -178 225 -99 68 -389 211 -453 222 -27 5
-112 12 -187 16 -126 6 -138 9 -138 26 0 11 -7 19 -16 19 -12 0 -15 -7 -11
-27z m391 -95 c75 -25 305 -140 377 -189 65 -44 132 -116 162 -174 26 -51 33
-169 18 -297 -16 -135 -33 -181 -76 -197 -28 -10 -39 -9 -64 4 -60 31 -101 15
-101 -40 0 -28 -5 -33 -48 -48 l-48 -18 -44 41 c-49 46 -83 51 -123 20 -23
-18 -40 -60 -62 -146 -4 -14 -116 -57 -126 -47 -4 4 -22 71 -39 148 -17 77
-45 192 -61 255 -21 77 -34 157 -40 240 -7 104 -41 341 -65 453 l-6 29 143 -7
c99 -5 162 -13 203 -27z m1296 -59 l33 -12 -6 -71 c-6 -68 -26 -156 -67 -296
-18 -61 -23 -68 -73 -98 -49 -30 -59 -32 -143 -32 -99 0 -142 16 -179 64 -44
59 -11 206 78 342 39 60 73 88 125 104 41 13 195 11 232 -1z m-1623 -263 c-7
-23 -39 106 -43 169 -3 69 -3 69 21 -45 13 -63 23 -119 22 -124z m1993 -251
c-109 -40 -449 -139 -455 -133 -2 2 3 29 12 60 l16 57 71 12 c96 16 306 37
386 37 l65 1 -95 -34z m-484 -87 l-24 -63 -203 -52 c-112 -29 -217 -52 -234
-53 -16 0 -55 -9 -85 -20 -30 -11 -64 -19 -75 -19 -28 0 11 20 175 90 75 31
182 80 239 109 96 47 151 66 208 69 l22 1 -23 -62z m-1426 -155 c54 -240 61
-269 66 -285 6 -19 -40 -48 -76 -48 -21 0 -22 3 -13 63 10 79 10 158 -1 275
-4 50 -6 92 -3 92 3 0 15 -44 27 -97z m1390 62 c0 -28 -73 -135 -93 -135 -5 0
-41 -16 -80 -35 -39 -19 -81 -35 -93 -35 -15 0 -39 19 -70 55 -26 31 -45 57
-43 60 5 4 348 93 367 94 6 1 12 -1 12 -4z m-531 -147 c-6 -12 -14 -42 -18
-68 l-6 -46 -36 46 c-41 53 -39 68 12 80 58 14 61 13 48 -12z m-229 8 c0 -2
-7 -6 -15 -10 -8 -3 -15 -1 -15 4 0 6 7 10 15 10 8 0 15 -2 15 -4z m57 -54
c-8 -10 -25 -30 -38 -45 -21 -25 -24 -26 -31 -10 -17 43 -9 61 30 70 45 12 58
7 39 -15z m-291 -5 l27 -23 -54 -23 c-30 -13 -60 -25 -66 -28 -18 -7 -16 31 2
67 19 37 53 39 91 7z m174 -56 c0 -31 -5 -53 -15 -61 -9 -7 -17 -11 -19 -9 -2
2 -15 23 -30 47 l-26 42 22 9 c13 4 30 11 38 14 28 10 30 7 30 -42z m-94 -46
c14 -25 25 -47 23 -49 -24 -21 -98 -44 -198 -60 l-33 -6 6 46 c3 26 7 48 8 50
8 7 144 63 155 64 7 0 24 -20 39 -45z m-250 -101 c-4 -9 -22 -14 -56 -14 -68
0 -67 23 3 54 l52 23 3 -25 c2 -13 1 -30 -2 -38z m-149 -10 c-3 -3 -12 -4 -19
-1 -8 3 -5 6 6 6 11 1 17 -2 13 -5z m133 -49 c0 -3 -7 -22 -15 -42 -12 -28
-18 -33 -29 -24 -8 6 -16 22 -18 36 -4 18 0 25 16 28 34 7 46 7 46 2z"/>
</g>
</svg>
